<svg width="1276.13" height="488.933" viewBox="0 0 957.1 366.7" xmlns="http://www.w3.org/2000/svg" xmlns:xlink="http://www.w3.org/1999/xlink" stroke-linejoin="round" overflow="hidden"><defs></defs><defs><clipPath id="p414ae5782b"><rect x="7.2" y="7.2" width="942.7" height="352.3"/></clipPath></defs><g id="figure_1"><g id="patch_1"><path d="M0 366.7 957.1 366.7 957.1 0 0 0Z" fill="#FFFFFF"/></g><g id="axes_1"><g id="patch_2"><path d="M34.5383 291.506 210.823 291.506C220.879 291.506 225.906 289.627 225.906 285.869L225.906 49.1237C225.906 45.3658 220.879 43.4869 210.823 43.4869L34.5383 43.4869C24.4828 43.4869 19.4551 45.3658 19.4551 49.1237L19.4551 285.869C19.4551 289.627 24.4828 291.506 34.5383 291.506Z" stroke="#303030" stroke-width="1.15" stroke-linejoin="miter" fill="#EEF4F8" clip-path="url(#p414ae5782b)"/></g><g id="patch_3"><path d="M270.213 291.506 446.498 291.506C456.554 291.506 461.581 289.627 461.581 285.869L461.581 49.1237C461.581 45.3658 456.554 43.4869 446.498 43.4869L270.213 43.4869C260.158 43.4869 255.13 45.3658 255.13 49.1237L255.13 285.869C255.13 289.627 260.158 291.506 270.213 291.506Z" stroke="#303030" stroke-width="1.15" stroke-linejoin="miter" fill="#EEF7F4" clip-path="url(#p414ae5782b)"/></g><g id="patch_4"><path d="M505.888 291.506 682.173 291.506C692.229 291.506 697.256 289.627 697.256 285.869L697.256 49.1237C697.256 45.3658 692.229 43.4869 682.173 43.4869L505.888 43.4869C495.833 43.4869 490.805 45.3658 490.805 49.1237L490.805 285.869C490.805 289.627 495.833 291.506 505.888 291.506Z" stroke="#303030" stroke-width="1.15" stroke-linejoin="miter" fill="#F3F1F8" clip-path="url(#p414ae5782b)"/></g><g id="patch_5"><path d="M741.563 291.506 917.848 291.506C927.904 291.506 932.931 289.627 932.931 285.869L932.931 49.1237C932.931 45.3658 927.904 43.4869 917.848 43.4869L741.563 43.4869C731.508 43.4869 726.48 45.3658 726.48 49.1237L726.48 285.869C726.48 289.627 731.508 291.506 741.563 291.506Z" stroke="#303030" stroke-width="1.15" stroke-linejoin="miter" fill="#F8F3EC" clip-path="url(#p414ae5782b)"/></g><g id="patch_6"><path d="M34.5383 88.9336 210.823 88.9336C220.879 88.9336 225.906 87.0547 225.906 83.2968L225.906 49.1237C225.906 45.3658 220.879 43.4869 210.823 43.4869L34.5383 43.4869C24.4828 43.4869 19.4551 45.3658 19.4551 49.1237L19.4551 83.2968C19.4551 87.0547 24.4828 88.9336 34.5383 88.9336Z" fill="#365E7D" clip-path="url(#p414ae5782b)"/></g><g id="patch_7"><path d="M270.213 88.9336 446.498 88.9336C456.554 88.9336 461.581 87.0547 461.581 83.2968L461.581 49.1237C461.581 45.3658 456.554 43.4869 446.498 43.4869L270.213 43.4869C260.158 43.4869 255.13 45.3658 255.13 49.1237L255.13 83.2968C255.13 87.0547 260.158 88.9336 270.213 88.9336Z" fill="#3C7163" clip-path="url(#p414ae5782b)"/></g><g id="patch_8"><path d="M505.888 88.9336 682.173 88.9336C692.229 88.9336 697.256 87.0547 697.256 83.2968L697.256 49.1237C697.256 45.3658 692.229 43.4869 682.173 43.4869L505.888 43.4869C495.833 43.4869 490.805 45.3658 490.805 49.1237L490.805 83.2968C490.805 87.0547 495.833 88.9336 505.888 88.9336Z" fill="#665C87" clip-path="url(#p414ae5782b)"/></g><g id="patch_9"><path d="M741.563 88.9336 917.848 88.9336C927.904 88.9336 932.931 87.0547 932.931 83.2968L932.931 49.1237C932.931 45.3658 927.904 43.4869 917.848 43.4869L741.563 43.4869C731.508 43.4869 726.48 45.3658 726.48 49.1237L726.48 83.2968C726.48 87.0547 731.508 88.9336 741.563 88.9336Z" fill="#8B6845" clip-path="url(#p414ae5782b)"/></g><g id="patch_10"><path d="M534.487 191.965C539.252 194.581 545.765 196.853 553.591 198.629 561.417 200.406 570.377 201.646 579.874 202.268 589.371 202.89 599.189 202.879 608.671 202.236 618.153 201.593 627.084 200.332 634.868 198.538" stroke="#665C87" stroke-width="1.05" stroke-linejoin="miter" fill="none" clip-path="url(#p414ae5782b)"/></g><g id="line2d_1"><path d="M122.681 181.589 169.816 181.589" stroke="#365E7D" stroke-width="1.15" stroke-linecap="square" fill="none" clip-path="url(#p414ae5782b)"/></g><g id="line2d_2"><path d="M122.681 181.589 146.248 166.333" stroke="#365E7D" stroke-width="1.15" stroke-linecap="square" fill="none" clip-path="url(#p414ae5782b)"/></g><g id="line2d_3"><path d="M122.681 181.589 99.1133 166.333" stroke="#365E7D" stroke-width="1.15" stroke-linecap="square" fill="none" clip-path="url(#p414ae5782b)"/></g><g id="line2d_4"><path d="M122.681 181.589 75.5458 181.589" stroke="#365E7D" stroke-width="1.15" stroke-linecap="square" fill="none" clip-path="url(#p414ae5782b)"/></g><g id="line2d_5"><path d="M122.681 181.589 99.1133 196.844" stroke="#365E7D" stroke-width="1.15" stroke-linecap="square" fill="none" clip-path="url(#p414ae5782b)"/></g><g id="line2d_6"><path d="M122.681 181.589 146.248 196.844" stroke="#365E7D" stroke-width="1.15" stroke-linecap="square" fill="none" clip-path="url(#p414ae5782b)"/></g><g id="patch_11"><path d="M122.681 205.545C139.681 205.545 155.988 203.021 168.009 198.528 180.03 194.036 186.784 187.942 186.784 181.589 186.784 175.235 180.03 169.141 168.009 164.649 155.988 160.156 139.681 157.632 122.681 157.632 105.68 157.632 89.3738 160.156 77.3527 164.649 65.3315 169.141 58.5771 175.235 58.5771 181.589 58.5771 187.942 65.3315 194.036 77.3527 198.528 89.3738 203.021 105.68 205.545 122.681 205.545L122.681 205.545Z" stroke="#365E7D" stroke-width="1.05" stroke-linejoin="miter" stroke-dasharray="3.885 1.68" fill="none" clip-path="url(#p414ae5782b)"/></g><g id="line2d_7"><path d="M293.309 181.589 309.335 175.599" stroke="#3C7163" stroke-width="1.2" stroke-linecap="square" fill="none" clip-path="url(#p414ae5782b)"/></g><g id="line2d_8"><path d="M309.335 175.599 327.765 180.391" stroke="#3C7163" stroke-width="1.2" stroke-linecap="square" fill="none" clip-path="url(#p414ae5782b)"/></g><g id="line2d_9"><path d="M309.335 175.599 317.348 188.476" stroke="#3C7163" stroke-width="1.2" stroke-linecap="square" fill="none" clip-path="url(#p414ae5782b)"/></g><g id="line2d_10"><path d="M339.502 172.781 358.356 165.735" stroke="#3C7163" stroke-width="1.2" stroke-linecap="square" fill="none" clip-path="url(#p414ae5782b)"/></g><g id="line2d_11"><path d="M358.356 165.735 380.038 171.372" stroke="#3C7163" stroke-width="1.2" stroke-linecap="square" fill="none" clip-path="url(#p414ae5782b)"/></g><g id="line2d_12"><path d="M358.356 165.735 367.783 180.884" stroke="#3C7163" stroke-width="1.2" stroke-linecap="square" fill="none" clip-path="url(#p414ae5782b)"/></g><g id="line2d_13"><path d="M392.67 182.998 407.376 177.502" stroke="#3C7163" stroke-width="1.2" stroke-linecap="square" fill="none" clip-path="url(#p414ae5782b)"/></g><g id="line2d_14"><path d="M407.376 177.502 424.288 181.899" stroke="#3C7163" stroke-width="1.2" stroke-linecap="square" fill="none" clip-path="url(#p414ae5782b)"/></g><g id="line2d_15"><path d="M407.376 177.502 414.729 189.318" stroke="#3C7163" stroke-width="1.2" stroke-linecap="square" fill="none" clip-path="url(#p414ae5782b)"/></g><g id="patch_12"><path d="M550.994 185.001C557.061 181.317 562.792 177.836 568.19 174.558" stroke="#665C87" stroke-width="1.05" stroke-linecap="round" fill="none" clip-path="url(#p414ae5782b)"/><path d="M564.401 174.87 568.19 174.558 566.166 177.776Z" stroke="#665C87" stroke-width="1.05" stroke-linecap="round" fill="#665C87" clip-path="url(#p414ae5782b)"/></g><g id="patch_13"><path d="M582.162 170.812C597.303 171.89 612.053 172.94 626.413 173.962" stroke="#665C87" stroke-width="1.05" stroke-linecap="round" fill="none" clip-path="url(#p414ae5782b)"/><path d="M623.143 172.025 626.413 173.962 622.901 175.416Z" stroke="#665C87" stroke-width="1.05" stroke-linecap="round" fill="#665C87" clip-path="url(#p414ae5782b)"/></g><g id="patch_14"><path d="M637.333 180.975C638.317 183.264 639.147 185.193 639.822 186.762" stroke="#665C87" stroke-width="1.05" stroke-linecap="round" fill="none" clip-path="url(#p414ae5782b)"/><path d="M640.04 182.967 639.822 186.762 636.917 184.31Z" stroke="#665C87" stroke-width="1.05" stroke-linecap="round" fill="#665C87" clip-path="url(#p414ae5782b)"/></g><g id="patch_15"><path d="M636.089 194.972C624.391 196.149 613.082 197.287 602.163 198.385" stroke="#665C87" stroke-width="1.05" stroke-linecap="round" fill="none" clip-path="url(#p414ae5782b)"/><path d="M605.716 199.736 602.163 198.385 605.376 196.353Z" stroke="#665C87" stroke-width="1.05" stroke-linecap="round" fill="#665C87" clip-path="url(#p414ae5782b)"/></g><g id="patch_16"><path d="M587.188 197.728C575.411 195.189 564.016 192.732 553.003 190.358" stroke="#665C87" stroke-width="1.05" stroke-linecap="round" fill="none" clip-path="url(#p414ae5782b)"/><path d="M555.968 192.736 553.003 190.358 556.685 189.413Z" stroke="#665C87" stroke-width="1.05" stroke-linecap="round" fill="#665C87" clip-path="url(#p414ae5782b)"/></g><g id="patch_17"><path d="M579.004 176.179C582.738 181.901 586.258 187.294 589.565 192.36" stroke="#665C87" stroke-width="1.05" stroke-linecap="round" fill="none" clip-path="url(#p414ae5782b)"/><path d="M589.13 188.584 589.565 192.36 586.283 190.442Z" stroke="#665C87" stroke-width="1.05" stroke-linecap="round" fill="#665C87" clip-path="url(#p414ae5782b)"/></g><g id="patch_18"><path d="M754.761 169.786 793.412 169.786C794.669 169.786 795.297 169.552 795.297 169.082L795.297 163.797C795.297 163.328 794.669 163.093 793.412 163.093L754.761 163.093C753.504 163.093 752.876 163.328 752.876 163.797L752.876 169.082C752.876 169.552 753.504 169.786 754.761 169.786Z" stroke="#8B6845" stroke-width="0.9" stroke-linejoin="miter" fill="#FFFFFF" clip-path="url(#p414ae5782b)"/></g><g id="patch_19"><path d="M754.761 166.263 793.412 166.263C794.669 166.263 795.297 166.029 795.297 165.559L795.297 160.274C795.297 159.805 794.669 159.57 793.412 159.57L754.761 159.57C753.504 159.57 752.876 159.805 752.876 160.274L752.876 165.559C752.876 166.029 753.504 166.263 754.761 166.263Z" stroke="#8B6845" stroke-width="0.9" stroke-linejoin="miter" fill="#FFFFFF" clip-path="url(#p414ae5782b)"/></g><g id="patch_20"><path d="M754.761 162.74 793.412 162.74C794.669 162.74 795.297 162.506 795.297 162.036L795.297 156.751C795.297 156.282 794.669 156.047 793.412 156.047L754.761 156.047C753.504 156.047 752.876 156.282 752.876 156.751L752.876 162.036C752.876 162.506 753.504 162.74 754.761 162.74Z" stroke="#8B6845" stroke-width="0.9" stroke-linejoin="miter" fill="#FFFFFF" clip-path="url(#p414ae5782b)"/></g><g id="patch_21"><path d="M787.285 169.931C792.942 171.949 798.248 173.842 803.203 175.609" stroke="#8B6845" stroke-linecap="round" fill="none" clip-path="url(#p414ae5782b)"/><path d="M800.571 172.866 803.203 175.609 799.429 176.068Z" stroke="#8B6845" stroke-linecap="round" fill="#8B6845" clip-path="url(#p414ae5782b)"/></g><g id="patch_22"><path d="M857.819 180.557C865.473 175.96 872.809 171.554 879.824 167.34" stroke="#8B6845" stroke-linecap="round" fill="none" clip-path="url(#p414ae5782b)"/><path d="M876.034 167.633 879.824 167.34 877.785 170.548Z" stroke="#8B6845" stroke-linecap="round" fill="#8B6845" clip-path="url(#p414ae5782b)"/></g><g id="line2d_16"><path d="M905.122 164.678 910.778 163.621" stroke="#8B6845" stroke-width="0.9" stroke-linecap="square" fill="none" clip-path="url(#p414ae5782b)"/></g><g id="patch_23"><path d="M858.101 181.589C867.452 181.589 876.43 181.589 885.036 181.589" stroke="#8B6845" stroke-linecap="round" fill="none" clip-path="url(#p414ae5782b)"/><path d="M881.636 179.889 885.036 181.589 881.636 183.288Z" stroke="#8B6845" stroke-linecap="round" fill="#8B6845" clip-path="url(#p414ae5782b)"/></g><g id="line2d_17"><path d="M910.778 180.532 916.434 179.475" stroke="#8B6845" stroke-width="0.9" stroke-linecap="square" fill="none" clip-path="url(#p414ae5782b)"/></g><g id="patch_24"><path d="M857.655 182.851C863.848 187.882 869.751 192.678 875.365 197.239" stroke="#8B6845" stroke-linecap="round" fill="none" clip-path="url(#p414ae5782b)"/><path d="M873.798 193.776 875.365 197.239 871.654 196.414Z" stroke="#8B6845" stroke-linecap="round" fill="#8B6845" clip-path="url(#p414ae5782b)"/></g><g id="line2d_18"><path d="M900.408 198.147 906.064 197.09" stroke="#8B6845" stroke-width="0.9" stroke-linecap="square" fill="none" clip-path="url(#p414ae5782b)"/></g><g id="patch_25"><path d="M367.311 322.509C530.084 322.509 692.056 322.509 853.226 322.509" stroke="#4B4B4B" stroke-width="2.15" stroke-linecap="round" fill="none" clip-path="url(#p414ae5782b)"/><path d="M846.426 319.108 853.226 322.509 846.426 325.909Z" stroke="#4B4B4B" stroke-width="2.15" stroke-linecap="round" fill="#4B4B4B" clip-path="url(#p414ae5782b)"/></g><g id="patch_26"><path d="M169.816 184.583C171.941 184.583 173.979 184.268 175.482 183.706 176.984 183.144 177.829 182.383 177.829 181.589 177.829 180.794 176.984 180.033 175.482 179.471 173.979 178.909 171.941 178.594 169.816 178.594 167.691 178.594 165.652 178.909 164.15 179.471 162.647 180.033 161.803 180.794 161.803 181.589 161.803 182.383 162.647 183.144 164.15 183.706 165.652 184.268 167.691 184.583 169.816 184.583Z" stroke="#365E7D" stroke-width="1.15" stroke-linejoin="miter" fill="#FFFFFF" clip-path="url(#p414ae5782b)"/></g><g id="patch_27"><path d="M146.248 169.328C148.373 169.328 150.412 169.012 151.914 168.451 153.417 167.889 154.261 167.128 154.261 166.333 154.261 165.539 153.417 164.778 151.914 164.216 150.412 163.654 148.373 163.339 146.248 163.339 144.123 163.339 142.085 163.654 140.582 164.216 139.08 164.778 138.235 165.539 138.235 166.333 138.235 167.128 139.08 167.889 140.582 168.451 142.085 169.012 144.123 169.328 146.248 169.328Z" stroke="#365E7D" stroke-width="1.15" stroke-linejoin="miter" fill="#FFFFFF" clip-path="url(#p414ae5782b)"/></g><g id="patch_28"><path d="M99.1133 169.328C101.238 169.328 103.277 169.012 104.779 168.451 106.282 167.889 107.126 167.128 107.126 166.333 107.126 165.539 106.282 164.778 104.779 164.216 103.277 163.654 101.238 163.339 99.1133 163.339 96.9882 163.339 94.9499 163.654 93.4472 164.216 91.9446 164.778 91.1003 165.539 91.1003 166.333 91.1003 167.128 91.9446 167.889 93.4472 168.451 94.9499 169.012 96.9882 169.328 99.1133 169.328Z" stroke="#365E7D" stroke-width="1.15" stroke-linejoin="miter" fill="#FFFFFF" clip-path="url(#p414ae5782b)"/></g><g id="patch_29"><path d="M75.5458 184.583C77.6708 184.583 79.7091 184.268 81.2118 183.706 82.7144 183.144 83.5587 182.383 83.5587 181.589 83.5587 180.794 82.7144 180.033 81.2118 179.471 79.7091 178.909 77.6708 178.594 75.5458 178.594 73.4207 178.594 71.3824 178.909 69.8797 179.471 68.3771 180.033 67.5328 180.794 67.5328 181.589 67.5328 182.383 68.3771 183.144 69.8797 183.706 71.3824 184.268 73.4207 184.583 75.5458 184.583Z" stroke="#365E7D" stroke-width="1.15" stroke-linejoin="miter" fill="#FFFFFF" clip-path="url(#p414ae5782b)"/></g><g id="patch_30"><path d="M99.1133 199.838C101.238 199.838 103.277 199.523 104.779 198.961 106.282 198.399 107.126 197.638 107.126 196.844 107.126 196.049 106.282 195.288 104.779 194.726 103.277 194.165 101.238 193.849 99.1133 193.849 96.9882 193.849 94.9499 194.165 93.4472 194.726 91.9446 195.288 91.1003 196.049 91.1003 196.844 91.1003 197.638 91.9446 198.399 93.4472 198.961 94.9499 199.523 96.9882 199.838 99.1133 199.838Z" stroke="#365E7D" stroke-width="1.15" stroke-linejoin="miter" fill="#FFFFFF" clip-path="url(#p414ae5782b)"/></g><g id="patch_31"><path d="M146.248 199.838C148.373 199.838 150.412 199.523 151.914 198.961 153.417 198.399 154.261 197.638 154.261 196.844 154.261 196.049 153.417 195.288 151.914 194.726 150.412 194.165 148.373 193.849 146.248 193.849 144.123 193.849 142.085 194.165 140.582 194.726 139.08 195.288 138.235 196.049 138.235 196.844 138.235 197.638 139.08 198.399 140.582 198.961 142.085 199.523 144.123 199.838 146.248 199.838Z" stroke="#365E7D" stroke-width="1.15" stroke-linejoin="miter" fill="#FFFFFF" clip-path="url(#p414ae5782b)"/></g><g id="patch_32"><path d="M293.309 183.949C294.984 183.949 296.591 183.7 297.776 183.258 298.96 182.815 299.626 182.214 299.626 181.589 299.626 180.963 298.96 180.362 297.776 179.919 296.591 179.477 294.984 179.228 293.309 179.228 291.634 179.228 290.028 179.477 288.843 179.919 287.659 180.362 286.993 180.963 286.993 181.589 286.993 182.214 287.659 182.815 288.843 183.258 290.028 183.7 291.634 183.949 293.309 183.949Z" stroke="#3C7163" stroke-width="1.1" stroke-linejoin="miter" fill="#FFFFFF" clip-path="url(#p414ae5782b)"/></g><g id="patch_33"><path d="M309.335 177.96C311.01 177.96 312.617 177.711 313.802 177.268 314.986 176.826 315.651 176.225 315.651 175.599 315.651 174.973 314.986 174.373 313.802 173.93 312.617 173.488 311.01 173.239 309.335 173.239 307.66 173.239 306.054 173.488 304.869 173.93 303.685 174.373 303.019 174.973 303.019 175.599 303.019 176.225 303.685 176.826 304.869 177.268 306.054 177.711 307.66 177.96 309.335 177.96Z" stroke="#3C7163" stroke-width="1.1" stroke-linejoin="miter" fill="#FFFFFF" clip-path="url(#p414ae5782b)"/></g><g id="patch_34"><path d="M327.765 182.751C329.44 182.751 331.047 182.502 332.231 182.06 333.416 181.617 334.081 181.017 334.081 180.391 334.081 179.765 333.416 179.164 332.231 178.722 331.047 178.279 329.44 178.03 327.765 178.03 326.09 178.03 324.483 178.279 323.299 178.722 322.115 179.164 321.449 179.765 321.449 180.391 321.449 181.017 322.115 181.617 323.299 182.06 324.483 182.502 326.09 182.751 327.765 182.751Z" stroke="#3C7163" stroke-width="1.1" stroke-linejoin="miter" fill="#FFFFFF" clip-path="url(#p414ae5782b)"/></g><g id="patch_35"><path d="M317.348 190.836C319.023 190.836 320.63 190.588 321.814 190.145 322.999 189.702 323.664 189.102 323.664 188.476 323.664 187.85 322.999 187.25 321.814 186.807 320.63 186.364 319.023 186.116 317.348 186.116 315.673 186.116 314.067 186.364 312.882 186.807 311.698 187.25 311.032 187.85 311.032 188.476 311.032 189.102 311.698 189.702 312.882 190.145 314.067 190.588 315.673 190.836 317.348 190.836Z" stroke="#3C7163" stroke-width="1.1" stroke-linejoin="miter" fill="#FFFFFF" clip-path="url(#p414ae5782b)"/></g><g id="patch_36"><path d="M339.502 175.141C341.177 175.141 342.783 174.893 343.968 174.45 345.152 174.007 345.818 173.407 345.818 172.781 345.818 172.155 345.152 171.555 343.968 171.112 342.783 170.669 341.177 170.421 339.502 170.421 337.827 170.421 336.22 170.669 335.036 171.112 333.851 171.555 333.186 172.155 333.186 172.781 333.186 173.407 333.851 174.007 335.036 174.45 336.22 174.893 337.827 175.141 339.502 175.141Z" stroke="#3C7163" stroke-width="1.1" stroke-linejoin="miter" fill="#FFFFFF" clip-path="url(#p414ae5782b)"/></g><g id="patch_37"><path d="M358.356 168.095C360.031 168.095 361.637 167.847 362.822 167.404 364.006 166.961 364.672 166.361 364.672 165.735 364.672 165.109 364.006 164.509 362.822 164.066 361.637 163.623 360.031 163.375 358.356 163.375 356.681 163.375 355.074 163.623 353.89 164.066 352.705 164.509 352.04 165.109 352.04 165.735 352.04 166.361 352.705 166.961 353.89 167.404 355.074 167.847 356.681 168.095 358.356 168.095Z" stroke="#3C7163" stroke-width="1.1" stroke-linejoin="miter" fill="#FFFFFF" clip-path="url(#p414ae5782b)"/></g><g id="patch_38"><path d="M380.038 173.732C381.713 173.732 383.32 173.484 384.504 173.041 385.688 172.598 386.354 171.998 386.354 171.372 386.354 170.746 385.688 170.145 384.504 169.703 383.32 169.26 381.713 169.011 380.038 169.011 378.363 169.011 376.756 169.26 375.572 169.703 374.387 170.145 373.722 170.746 373.722 171.372 373.722 171.998 374.387 172.598 375.572 173.041 376.756 173.484 378.363 173.732 380.038 173.732Z" stroke="#3C7163" stroke-width="1.1" stroke-linejoin="miter" fill="#FFFFFF" clip-path="url(#p414ae5782b)"/></g><g id="patch_39"><path d="M367.783 183.244C369.458 183.244 371.064 182.996 372.249 182.553 373.433 182.11 374.099 181.51 374.099 180.884 374.099 180.258 373.433 179.657 372.249 179.215 371.064 178.772 369.458 178.523 367.783 178.523 366.108 178.523 364.501 178.772 363.317 179.215 362.132 179.657 361.467 180.258 361.467 180.884 361.467 181.51 362.132 182.11 363.317 182.553 364.501 182.996 366.108 183.244 367.783 183.244Z" stroke="#3C7163" stroke-width="1.1" stroke-linejoin="miter" fill="#FFFFFF" clip-path="url(#p414ae5782b)"/></g><g id="patch_40"><path d="M392.67 185.358C394.345 185.358 395.952 185.109 397.136 184.667 398.321 184.224 398.986 183.624 398.986 182.998 398.986 182.372 398.321 181.771 397.136 181.329 395.952 180.886 394.345 180.637 392.67 180.637 390.995 180.637 389.388 180.886 388.204 181.329 387.019 181.771 386.354 182.372 386.354 182.998 386.354 183.624 387.019 184.224 388.204 184.667 389.388 185.109 390.995 185.358 392.67 185.358Z" stroke="#3C7163" stroke-width="1.1" stroke-linejoin="miter" fill="#FFFFFF" clip-path="url(#p414ae5782b)"/></g><g id="patch_41"><path d="M407.376 179.862C409.051 179.862 410.658 179.614 411.842 179.171 413.027 178.728 413.692 178.128 413.692 177.502 413.692 176.876 413.027 176.275 411.842 175.833 410.658 175.39 409.051 175.141 407.376 175.141 405.701 175.141 404.094 175.39 402.91 175.833 401.726 176.275 401.06 176.876 401.06 177.502 401.06 178.128 401.726 178.728 402.91 179.171 404.094 179.614 405.701 179.862 407.376 179.862Z" stroke="#3C7163" stroke-width="1.1" stroke-linejoin="miter" fill="#FFFFFF" clip-path="url(#p414ae5782b)"/></g><g id="patch_42"><path d="M424.288 184.259C425.963 184.259 427.57 184.01 428.754 183.568 429.939 183.125 430.604 182.525 430.604 181.899 430.604 181.273 429.939 180.672 428.754 180.229 427.57 179.787 425.963 179.538 424.288 179.538 422.613 179.538 421.006 179.787 419.822 180.229 418.638 180.672 417.972 181.273 417.972 181.899 417.972 182.525 418.638 183.125 419.822 183.568 421.006 184.01 422.613 184.259 424.288 184.259Z" stroke="#3C7163" stroke-width="1.1" stroke-linejoin="miter" fill="#FFFFFF" clip-path="url(#p414ae5782b)"/></g><g id="patch_43"><path d="M414.729 191.678C416.404 191.678 418.011 191.43 419.195 190.987 420.38 190.544 421.045 189.944 421.045 189.318 421.045 188.692 420.38 188.092 419.195 187.649 418.011 187.206 416.404 186.958 414.729 186.958 413.054 186.958 411.448 187.206 410.263 187.649 409.079 188.092 408.413 188.692 408.413 189.318 408.413 189.944 409.079 190.544 410.263 190.987 411.448 191.43 413.054 191.678 414.729 191.678Z" stroke="#3C7163" stroke-width="1.1" stroke-linejoin="miter" fill="#FFFFFF" clip-path="url(#p414ae5782b)"/></g><g id="patch_44"><path d="M545.01 191.453C547.01 191.453 548.929 191.156 550.343 190.627 551.757 190.099 552.552 189.382 552.552 188.635 552.552 187.887 551.757 187.17 550.343 186.642 548.929 186.113 547.01 185.816 545.01 185.816 543.01 185.816 541.092 186.113 539.678 186.642 538.263 187.17 537.469 187.887 537.469 188.635 537.469 189.382 538.263 190.099 539.678 190.627 541.092 191.156 543.01 191.453 545.01 191.453Z" stroke="#665C87" stroke-width="1.1" stroke-linejoin="miter" fill="#FFFFFF" clip-path="url(#p414ae5782b)"/></g><g id="patch_45"><path d="M575.177 173.133C577.177 173.133 579.095 172.836 580.509 172.308 581.924 171.779 582.718 171.062 582.718 170.315 582.718 169.567 581.924 168.851 580.509 168.322 579.095 167.793 577.177 167.497 575.177 167.497 573.177 167.497 571.258 167.793 569.844 168.322 568.43 168.851 567.635 169.567 567.635 170.315 567.635 171.062 568.43 171.779 569.844 172.308 571.258 172.836 573.177 173.133 575.177 173.133Z" stroke="#665C87" stroke-width="1.1" stroke-linejoin="miter" fill="#FFFFFF" clip-path="url(#p414ae5782b)"/></g><g id="patch_46"><path d="M634.567 177.361C636.567 177.361 638.485 177.064 639.9 176.535 641.314 176.007 642.108 175.29 642.108 174.542 642.108 173.795 641.314 173.078 639.9 172.55 638.485 172.021 636.567 171.724 634.567 171.724 632.567 171.724 630.648 172.021 629.234 172.55 627.82 173.078 627.025 173.795 627.025 174.542 627.025 175.29 627.82 176.007 629.234 176.535 630.648 177.064 632.567 177.361 634.567 177.361Z" stroke="#665C87" stroke-width="1.1" stroke-linejoin="miter" fill="#FFFFFF" clip-path="url(#p414ae5782b)"/></g><g id="patch_47"><path d="M643.051 197.09C645.051 197.09 646.97 196.793 648.384 196.264 649.798 195.736 650.593 195.019 650.593 194.271 650.593 193.524 649.798 192.807 648.384 192.278 646.97 191.75 645.051 191.453 643.051 191.453 641.051 191.453 639.133 191.75 637.718 192.278 636.304 192.807 635.51 193.524 635.51 194.271 635.51 195.019 636.304 195.736 637.718 196.264 639.133 196.793 641.051 197.09 643.051 197.09Z" stroke="#665C87" stroke-width="1.1" stroke-linejoin="miter" fill="#FFFFFF" clip-path="url(#p414ae5782b)"/></g><g id="patch_48"><path d="M594.031 202.022C596.031 202.022 597.949 201.725 599.363 201.196 600.778 200.668 601.572 199.951 601.572 199.204 601.572 198.456 600.778 197.739 599.363 197.211 597.949 196.682 596.031 196.385 594.031 196.385 592.031 196.385 590.112 196.682 588.698 197.211 587.284 197.739 586.489 198.456 586.489 199.204 586.489 199.951 587.284 200.668 588.698 201.196 590.112 201.725 592.031 202.022 594.031 202.022Z" stroke="#665C87" stroke-width="1.1" stroke-linejoin="miter" fill="#FFFFFF" clip-path="url(#p414ae5782b)"/></g><g id="patch_49"><path d="M807.081 189.339 852.331 189.339C855.473 189.339 857.044 188.752 857.044 187.578L857.044 175.599C857.044 174.425 855.473 173.838 852.331 173.838L807.081 173.838C803.939 173.838 802.367 174.425 802.367 175.599L802.367 187.578C802.367 188.752 803.939 189.339 807.081 189.339Z" stroke="#8B6845" stroke-width="1.1" stroke-linejoin="miter" fill="#FFFFFF" clip-path="url(#p414ae5782b)"/></g><g id="patch_50"><path d="M897.58 168.906C899.83 168.906 901.988 168.572 903.579 167.977 905.17 167.382 906.064 166.576 906.064 165.735 906.064 164.894 905.17 164.088 903.579 163.493 901.988 162.898 899.83 162.564 897.58 162.564 895.33 162.564 893.172 162.898 891.581 163.493 889.99 164.088 889.096 164.894 889.096 165.735 889.096 166.576 889.99 167.382 891.581 167.977 893.172 168.572 895.33 168.906 897.58 168.906Z" stroke="#8B6845" stroke-linejoin="miter" fill="#FFFFFF" clip-path="url(#p414ae5782b)"/></g><g id="patch_51"><path d="M914.549 164.854C915.924 164.854 917.243 164.65 918.215 164.287 919.187 163.923 919.734 163.43 919.734 162.917 919.734 162.403 919.187 161.91 918.215 161.546 917.243 161.183 915.924 160.979 914.549 160.979 913.174 160.979 911.855 161.183 910.883 161.546 909.91 161.91 909.364 162.403 909.364 162.917 909.364 163.43 909.91 163.923 910.883 164.287 911.855 164.65 913.174 164.854 914.549 164.854Z" stroke="#8B6845" stroke-width="0.9" stroke-linejoin="miter" fill="#FFFFFF" clip-path="url(#p414ae5782b)"/></g><g id="patch_52"><path d="M903.236 184.759C905.486 184.759 907.645 184.425 909.236 183.831 910.827 183.236 911.721 182.429 911.721 181.589 911.721 180.748 910.827 179.941 909.236 179.346 907.645 178.752 905.486 178.418 903.236 178.418 900.986 178.418 898.828 178.752 897.237 179.346 895.646 179.941 894.752 180.748 894.752 181.589 894.752 182.429 895.646 183.236 897.237 183.831 898.828 184.425 900.986 184.759 903.236 184.759Z" stroke="#8B6845" stroke-linejoin="miter" fill="#FFFFFF" clip-path="url(#p414ae5782b)"/></g><g id="patch_53"><path d="M920.205 180.708C921.58 180.708 922.899 180.504 923.871 180.14 924.844 179.777 925.39 179.284 925.39 178.77 925.39 178.256 924.844 177.763 923.871 177.4 922.899 177.037 921.58 176.832 920.205 176.832 918.83 176.832 917.511 177.037 916.539 177.4 915.566 177.763 915.02 178.256 915.02 178.77 915.02 179.284 915.566 179.777 916.539 180.14 917.511 180.504 918.83 180.708 920.205 180.708Z" stroke="#8B6845" stroke-width="0.9" stroke-linejoin="miter" fill="#FFFFFF" clip-path="url(#p414ae5782b)"/></g><g id="patch_54"><path d="M892.867 202.374C895.117 202.374 897.275 202.04 898.866 201.446 900.457 200.851 901.351 200.044 901.351 199.204 901.351 198.363 900.457 197.556 898.866 196.961 897.275 196.367 895.117 196.033 892.867 196.033 890.617 196.033 888.458 196.367 886.867 196.961 885.276 197.556 884.382 198.363 884.382 199.204 884.382 200.044 885.276 200.851 886.867 201.446 888.458 202.04 890.617 202.374 892.867 202.374Z" stroke="#8B6845" stroke-linejoin="miter" fill="#FFFFFF" clip-path="url(#p414ae5782b)"/></g><g id="patch_55"><path d="M909.835 198.323C911.21 198.323 912.529 198.119 913.501 197.755 914.474 197.392 915.02 196.899 915.02 196.385 915.02 195.871 914.474 195.378 913.501 195.015 912.529 194.652 911.21 194.447 909.835 194.447 908.46 194.447 907.141 194.652 906.169 195.015 905.197 195.378 904.65 195.871 904.65 196.385 904.65 196.899 905.197 197.392 906.169 197.755 907.141 198.119 908.46 198.323 909.835 198.323Z" stroke="#8B6845" stroke-width="0.9" stroke-linejoin="miter" fill="#FFFFFF" clip-path="url(#p414ae5782b)"/></g><g id="text_1"><text fill="#FFFFFF" font-family="DejaVu Sans" font-weight="700" font-size="17.5" text-anchor="middle" x="122.681" y="70.863">2007</text></g><g id="text_2"><text fill="#1F1F1F" font-family="DejaVu Sans" font-weight="700" font-size="14.6" transform="translate(50.6469 123.984)">High-dimensional</text><text fill="#1F1F1F" font-family="DejaVu Sans" font-weight="700" font-size="14.6" transform="translate(52.1228 138.45)">neural potentials</text></g><g id="text_3"><text fill="#1F1F1F" font-family="DejaVu Sans" font-weight="700" font-size="13.3" text-anchor="middle" x="122.681" y="227.534">Behler–Parrinello</text></g><g id="text_4"><text fill="#1F1F1F" font-family="DejaVu Sans" font-size="11.8" transform="translate(64.8672 266.851)">Local environments</text><text fill="#1F1F1F" font-family="DejaVu Sans" font-size="11.8" transform="translate(58.5699 278.988)">+ atomic-energy sum</text></g><g id="text_5"><text fill="#FFFFFF" font-family="DejaVu Sans" font-weight="700" font-size="17.5" text-anchor="middle" x="358.356" y="70.863">2017</text></g><g id="text_6"><text fill="#1F1F1F" font-family="DejaVu Sans" font-weight="700" font-size="14.6" transform="translate(306.779 123.984)">Transferable</text><text fill="#1F1F1F" font-family="DejaVu Sans" font-weight="700" font-size="14.6" transform="translate(273.542 138.336)">molecular potentials</text></g><g id="text_7"><text fill="#1F1F1F" font-family="DejaVu Sans" font-weight="700" font-size="13.3" text-anchor="middle" x="358.356" y="227.534">ANI-1</text></g><g id="text_8"><text fill="#1F1F1F" font-family="DejaVu Sans" font-size="11.8" transform="translate(311.197 266.851)">Broader organic</text><text fill="#1F1F1F" font-family="DejaVu Sans" font-size="11.8" transform="translate(312.673 278.988)">chemical space</text></g><g id="text_9"><text fill="#FFFFFF" font-family="DejaVu Sans" font-weight="700" font-size="17.5" text-anchor="middle" x="594.031" y="70.863">2022</text></g><g id="text_10"><text fill="#1F1F1F" font-family="DejaVu Sans" font-weight="700" font-size="14.6" transform="translate(546.72 123.984)">Equivariant</text><text fill="#1F1F1F" font-family="DejaVu Sans" font-weight="700" font-size="14.6" transform="translate(539.128 138.336)">architectures</text></g><g id="text_11"><text fill="#1F1F1F" font-family="DejaVu Sans" font-weight="700" font-size="13.3" text-anchor="middle" x="594.031" y="227.534">NequIP · MACE</text></g><g id="text_12"><text fill="#1F1F1F" font-family="DejaVu Sans" font-size="11.8" transform="translate(544.606 266.851)">Geometry-aware</text><text fill="#1F1F1F" font-family="DejaVu Sans" font-size="11.8" transform="translate(543.008 278.988)">message passing</text></g><g id="text_13"><text fill="#FFFFFF" font-family="DejaVu Sans" font-weight="700" font-size="17.5" text-anchor="middle" x="829.706" y="70.863">2025</text></g><g id="text_14"><text fill="#1F1F1F" font-family="DejaVu Sans" font-weight="700" font-size="14.6" transform="translate(785.913 123.984)">Pretrained</text><text fill="#1F1F1F" font-family="DejaVu Sans" font-weight="700" font-size="14.6" transform="translate(761.82 138.336)">reusable models</text></g><g id="text_15"><text fill="#1F1F1F" font-family="DejaVu Sans" font-weight="700" font-size="13.3" transform="translate(751.744 221.099)">MACE-OFF · AIMNet2</text><text fill="#1F1F1F" font-family="DejaVu Sans" font-weight="700" font-size="13.3" transform="translate(812.541 233.97)">UMA</text></g><g id="text_16"><text fill="#1F1F1F" font-family="DejaVu Sans" font-size="11.8" transform="translate(766.073 266.851)">Reuse across broader</text><text fill="#1F1F1F" font-family="DejaVu Sans" font-size="11.8" transform="translate(769.237 278.988)">molecular chemistry</text></g><g id="patch_56"><path d="M122.681 186.873C126.431 186.873 130.028 186.316 132.68 185.325 135.331 184.334 136.821 182.99 136.821 181.589 136.821 180.187 135.331 178.843 132.68 177.852 130.028 176.861 126.431 176.304 122.681 176.304 118.931 176.304 115.334 176.861 112.682 177.852 110.03 178.843 108.54 180.187 108.54 181.589 108.54 182.99 110.03 184.334 112.682 185.325 115.334 186.316 118.931 186.873 122.681 186.873Z" fill="#365E7D" clip-path="url(#p414ae5782b)"/></g><g id="text_17"><text fill="#8B6845" font-family="DejaVu Sans" font-weight="700" font-size="9.5" text-anchor="middle" x="829.706" y="184.21">MLFF</text></g><g id="text_18"><text fill="#1F1F1F" font-family="DejaVu Sans" font-weight="700" font-size="13.2" x="26.054" y="326.151">Towards broader chemical scope and reuse</text></g><g id="patch_57"><path d="M224.964 176.304C235.333 176.304 244.939 176.304 253.781 176.304" stroke="#4B4B4B" stroke-width="2.05" stroke-linecap="round" fill="none" clip-path="url(#p414ae5782b)"/><path d="M245.781 172.304 253.781 176.304 245.781 180.304Z" stroke="#4B4B4B" stroke-width="2.05" stroke-linecap="round" fill="#4B4B4B" clip-path="url(#p414ae5782b)"/></g><g id="patch_58"><path d="M460.639 176.304C471.008 176.304 480.614 176.304 489.456 176.304" stroke="#4B4B4B" stroke-width="2.05" stroke-linecap="round" fill="none" clip-path="url(#p414ae5782b)"/><path d="M481.456 172.304 489.456 176.304 481.456 180.304Z" stroke="#4B4B4B" stroke-width="2.05" stroke-linecap="round" fill="#4B4B4B" clip-path="url(#p414ae5782b)"/></g><g id="patch_59"><path d="M696.314 176.304C706.683 176.304 716.289 176.304 725.131 176.304" stroke="#4B4B4B" stroke-width="2.05" stroke-linecap="round" fill="none" clip-path="url(#p414ae5782b)"/><path d="M717.131 172.304 725.131 176.304 717.131 180.304Z" stroke="#4B4B4B" stroke-width="2.05" stroke-linecap="round" fill="#4B4B4B" clip-path="url(#p414ae5782b)"/></g></g></g></svg>